<svg xmlns="http://www.w3.org/2000/svg" viewBox="0 0 512 512" width="512" height="512">
    <rect width="512" height="512" fill="#3b82f6" />
    <g transform="translate(256 256)">
        <path d="M 34 -106.8 L 173.5 -141.7 A 11.8 27.3 0 0 1 173.5 -87.1 L 34 -82.8 Z" fill="#ffffff" />
        <path d="M -28 -48 L 28 -48 L 64 112 L -64 112 Z" fill="#ffffff" />
        <path d="M -88 112 L 88 112 L 108 158 L -108 158 Z" fill="#ffffff" />
        <rect x="-50" y="-62" width="100" height="14" fill="#ffffff" />
        <path d="M -34 -97.2 L -173.5 -93.0 A 11.8 27.3 0 0 0 -173.5 -38.4 L -34 -73.2 Z" fill="#ffffff" />
        <rect x="-30" y="-122" width="60" height="62" fill="#ffffff" />
        <path d="M -50 -122 A 56 56 0 0 1 50 -122 Z" fill="#ffffff" />
        <circle cx="0" cy="-155" r="12" fill="#ffffff" />
    </g>
</svg>
